# xmcd CD database file
#
# Track frame offsets:
#	150
#	15244
#	38890
#	86706
#	116136
#
# Disc length: 1874 seconds
#
# Revision: 1
# Processed by: cddbd v1.5.1PL0 Copyright (c) Steve Scherf et al.
# Submitted via: CDex 1.51
#
DISCID=34075005
DTITLE=Jim Kahr - Live Mannheim
DYEAR=2005
DGENRE=Blues
TTITLE0=Roughnin´it
TTITLE1=Ain´t Nobody´s Business
TTITLE2=Comin´Home - Eleanor Rigby Medley
TTITLE3=Mojo Workin´
TTITLE4=Old Love
EXTD=YEAR: 2005
EXTT0=
EXTT1=
EXTT2=
EXTT3=
EXTT4=
PLAYORDER=
